<svg width="24" height="25" viewBox="0 0 24 25" fill="none" xmlns="http://www.w3.org/2000/svg">
<rect width="24" height="25" fill="#F5F5F5"/>
<g id="1_home" clip-path="url(#clip0_0_1)">
<rect width="1366" height="3879" transform="translate(-1177 -50)" fill="white"/>
<g id="Header">
<g id="Navbar" clip-path="url(#clip1_0_1)">
<rect width="1366" height="77.5238" transform="translate(-1177 -33.5239)" fill="white"/>
<rect id="base" x="-1177" y="-38.5239" width="1366" height="88" fill="white"/>
<g id="search/cart">
<g id="user 1">
<path id="Vector" d="M20 21.4761V19.4761C20 18.4152 19.5786 17.3978 18.8284 16.6476C18.0783 15.8975 17.0609 15.4761 16 15.4761H8C6.93913 15.4761 5.92172 15.8975 5.17157 16.6476C4.42143 17.3978 4 18.4152 4 19.4761V21.4761" stroke="#1D1D1D" stroke-width="2" stroke-linecap="round" stroke-linejoin="round"/>
<path id="Vector_2" d="M12 11.4761C14.2091 11.4761 16 9.68521 16 7.47607C16 5.26694 14.2091 3.47607 12 3.47607C9.79086 3.47607 8 5.26694 8 7.47607C8 9.68521 9.79086 11.4761 12 11.4761Z" stroke="#1D1D1D" stroke-width="2" stroke-linecap="round" stroke-linejoin="round"/>
</g>
</g>
</g>
</g>
</g>
<defs>
<clipPath id="clip0_0_1">
<rect width="1366" height="3879" fill="white" transform="translate(-1177 -50)"/>
</clipPath>
<clipPath id="clip1_0_1">
<rect width="1366" height="77.5238" fill="white" transform="translate(-1177 -33.5239)"/>
</clipPath>
</defs>
</svg>
