<svg width="24" height="25" viewBox="0 0 24 25" fill="none" xmlns="http://www.w3.org/2000/svg">
<rect width="24" height="25" fill="#F5F5F5"/>
<g id="1_home" clip-path="url(#clip0_0_1)">
<rect width="1366" height="3879" transform="translate(-1226 -50)" fill="white"/>
<g id="Header">
<g id="Navbar" clip-path="url(#clip1_0_1)">
<rect width="1366" height="77.5238" transform="translate(-1226 -33.5239)" fill="white"/>
<rect id="base" x="-1226" y="-38.5239" width="1366" height="88" fill="white"/>
<g id="search/cart">
<g id="cart">
<g id="shopping-bag 1">
<path id="Vector" d="M6 2.47607L3 6.47607V20.4761C3 21.0065 3.21071 21.5152 3.58579 21.8903C3.96086 22.2654 4.46957 22.4761 5 22.4761H19C19.5304 22.4761 20.0391 22.2654 20.4142 21.8903C20.7893 21.5152 21 21.0065 21 20.4761V6.47607L18 2.47607H6Z" stroke="#1D1D1D" stroke-width="2" stroke-linecap="round" stroke-linejoin="round"/>
<path id="Vector_2" d="M3 6.47607H21" stroke="#1D1D1D" stroke-width="2" stroke-linecap="round" stroke-linejoin="round"/>
<path id="Vector_3" d="M16 10.4761C16 11.5369 15.5786 12.5544 14.8284 13.3045C14.0783 14.0546 13.0609 14.4761 12 14.4761C10.9391 14.4761 9.92172 14.0546 9.17157 13.3045C8.42143 12.5544 8 11.5369 8 10.4761" stroke="#1D1D1D" stroke-width="2" stroke-linecap="round" stroke-linejoin="round"/>
</g>
<g id="quantity">
<circle id="Ellipse 1" cx="22.5" cy="2.97607" r="10.5" fill="#024E82"/>
<path id="10" d="M23.0572 6.59607C22.3772 6.59607 21.8272 6.31274 21.4072 5.74607C20.9939 5.17941 20.7872 4.35607 20.7872 3.27607C20.7872 2.19607 20.9939 1.38274 21.4072 0.836074C21.8272 0.282741 22.3772 0.00607407 23.0572 0.00607407C23.7372 0.00607407 24.2839 0.282741 24.6972 0.836074C25.1172 1.38274 25.3272 2.19607 25.3272 3.27607C25.3272 4.35607 25.1172 5.17941 24.6972 5.74607C24.2839 6.31274 23.7372 6.59607 23.0572 6.59607ZM23.0572 5.45607C23.2239 5.45607 23.3739 5.39607 23.5072 5.27607C23.6406 5.14941 23.7439 4.92941 23.8172 4.61607C23.8972 4.30274 23.9372 3.85607 23.9372 3.27607C23.9372 2.69607 23.8972 2.25274 23.8172 1.94607C23.7439 1.63941 23.6406 1.42941 23.5072 1.31607C23.3739 1.20274 23.2239 1.14607 23.0572 1.14607C22.8972 1.14607 22.7506 1.20274 22.6172 1.31607C22.4839 1.42941 22.3772 1.63941 22.2972 1.94607C22.2172 2.25274 22.1772 2.69607 22.1772 3.27607C22.1772 3.85607 22.2172 4.30274 22.2972 4.61607C22.3772 4.92941 22.4839 5.14941 22.6172 5.27607C22.7506 5.39607 22.8972 5.45607 23.0572 5.45607Z" fill="white"/>
</g>
</g>
</g>
</g>
</g>
</g>
<defs>
<clipPath id="clip0_0_1">
<rect width="1366" height="3879" fill="white" transform="translate(-1226 -50)"/>
</clipPath>
<clipPath id="clip1_0_1">
<rect width="1366" height="77.5238" fill="white" transform="translate(-1226 -33.5239)"/>
</clipPath>
</defs>
</svg>
